<?xml version="1.0" encoding="utf-8"?>
<!-- Generator: Adobe Illustrator 18.0.0, SVG Export Plug-In . SVG Version: 6.00 Build 0)  -->
<!DOCTYPE svg PUBLIC "-//W3C//DTD SVG 1.1//EN" "http://www.w3.org/Graphics/SVG/1.1/DTD/svg11.dtd">
<svg version="1.1" id="Layer_1" xmlns="http://www.w3.org/2000/svg" xmlns:xlink="http://www.w3.org/1999/xlink" x="0px" y="0px"
	 viewBox="0 0 1190.6 1683.8" enable-background="new 0 0 1190.6 1683.8" xml:space="preserve">
<g>
	<g>
		<path fill="#FFFFFF" d="M953.3,1059.2c-14.7-24.4-35.1-48.3-62-59.4c-22.3-9.2-46.5-10.3-70.2-12.2c-21.8-1.7-44.8-4.5-61.3-20.3
			c-66.5-65.9-133.1-131.8-199.6-197.8c-34.4-34-68.7-68.1-103.1-102.1c-13.6-13.5-29.2-25.8-35.8-44.4c-7.4-20.8-6.9-43.8-9.4-65.5
			c-4-34.5-16.1-61.4-42.6-84.3c-30.9-26.6-69.6-43.5-110.3-46.1c-10.6-0.7-15.3,13.4-8.3,20.3c24.5,24.3,49,48.6,73.6,72.9
			c-4.2,28.6-8.4,57.1-12.6,85.7c-28.5,4.5-57,8.9-85.6,13.4c-24.5-24.3-49-48.6-73.6-72.9c-7-6.9-21-2.1-20.2,8.5
			c2.2,29.5,11.7,57.2,26.9,82.4c14.2,23.6,33.9,46.9,59.5,58.4c40.4,18.1,91.4,3.1,128.5,28.6c9.2,6.3,16.9,16.2,24.9,24
			c10.1,10,20.1,19.9,30.2,29.9c21,20.8,42,41.6,63,62.4c42.8,42.4,85.7,84.9,128.5,127.3c24.9,24.7,49.8,49.3,74.7,74
			c11.1,11,19.7,21,24.2,36.3c4.5,15.2,5.1,31.3,6.5,47c3.1,35.8,11,67.4,38.1,92.7c31.7,29.6,72.9,48.6,116.3,51.3
			c10.6,0.7,15.3-13.4,8.3-20.3c-24.5-24.3-49-48.6-73.6-72.9c4.2-28.6,8.4-57.1,12.6-85.7c28.5-4.5,57-8.9,85.6-13.4
			c24.5,24.3,49,48.6,73.6,72.9c7,6.9,21,2.1,20.2-8.5C978,1112.1,968.5,1084.4,953.3,1059.2z"/>
		<g>
			<path fill="#FFFFFF" d="M462.6,862.7L138,1187.6c-13.9,13.9-13.9,36.7,0,50.6l29.6,29.5c13.9,13.9,36.7,13.9,50.6,0l324.9-325.2
				L462.6,862.7z"/>
			<path fill="#FFFFFF" d="M1055.9,703.6l-68.6-68.5c-10.5-10.5-29.1-9.1-41.3,3.1l-10.2,10.2L924.4,637l13-13
				c12.2-12.2,13.6-30.8,3.1-41.3l-82.6-82.5c0,0-134.7-168.1-246.7-56c0,0,47.5-7.3,132.9,61.5l-62.5,62.5
				c-12.2,12.2-13.6,30.8-3.1,41.3l19.3,19.3c-2.3,1.4-4.6,3.1-6.6,5.1l-120.9,121l80.5,79.8L771.3,714c2-2,3.7-4.3,5.1-6.6
				l19.7,19.7c10.5,10.5,29.1,9.1,41.3-3.1l13-13l11.4,11.4l-15.8,15.8c-12.2,12.2-13.6,30.8-3.1,41.3l68.6,68.5
				c10.5,10.5,29.1,9.1,41.3-3.1l99.8-99.9C1065,732.7,1066.4,714.1,1055.9,703.6z"/>
		</g>
	</g>
</g>
</svg>
