<?xml version="1.0" encoding="utf-8"?>
<!-- Generator: Adobe Illustrator 18.0.0, SVG Export Plug-In . SVG Version: 6.00 Build 0)  -->
<!DOCTYPE svg PUBLIC "-//W3C//DTD SVG 1.1//EN" "http://www.w3.org/Graphics/SVG/1.1/DTD/svg11.dtd">
<svg version="1.1" id="Laag_1" xmlns="http://www.w3.org/2000/svg" xmlns:xlink="http://www.w3.org/1999/xlink" x="0px" y="0px"
	 viewBox="0 0 1190.6 1683.8" enable-background="new 0 0 1190.6 1683.8" xml:space="preserve">
<g>
	<path fill="#FFFFFF" d="M723.2,290.6c0,63.3,0,126,0,189.3c7.9,0,14.4,0,22.4,0c0-41.9,0-83.5,0-127.9c22.9,8.4,43.6,15.9,64.3,24
		c1.9,0.8,2.6,5.4,2.8,8.3c0.3,17.3,0.1,34.4,0.1,52.5c7.5,0,14.3,0,22,0c0-15.6,0-31.5,0-49.8c65.3,31.5,119.8,72.8,165.5,124.5
		c59,66.8,97.3,143,115.4,230c-11,0-20.6,0-30.8,0c0,7.3,0,13.5,0,20.9c26.9,0,53.9,0,81.8,0c0,21.6,0,42.1,0,63.4
		c-377.3,0-754.6,0-1132.8,0c0-20.6,0-41,0-62.6c24,0,47.9,0,72.4,0c0-7.5,0-13.8,0-21.3c-9.5,0-19,0-30.6,0
		c12.8-64.1,37.1-122.3,73-175.9c53.8-80.3,125.9-140.8,217-183.5c0,19.1,0,36.5,0,54.5c7.9,0,14.6,0,22.6,0c0-19,0.4-37.5-0.3-55.9
		c-0.3-6.6,2.1-9.6,8.5-11.6c19-6.1,37.8-12.8,58-19.6c0,44.3,0,86.6,0,129.9c7.6,0,14.5,0,22.5,0c0-62.8,0-125.5,0-189
		C559.4,290.6,640.7,290.6,723.2,290.6z"/>
	<path fill="#FFFFFF" d="M1166.4,938.9c-32.8,4.1-64.6,8.3-96.5,12c-7,0.9-11,2.6-13,10.1c-10.8,42.1-28.3,81.8-51.8,118.9
		c-3.4,5.4-2.8,8.8,1,13.4c20.4,24.9,40.4,50.1,60,74.5c-45.3,43-90,85.6-135.1,128.6c-27.4-19.9-55.9-40.6-83.6-60.9
		c-24.4,11.3-47.6,23.1-72,32.8c-20.4,8-41.8,13.6-62.9,19.8c-5.6,1.6-8,3.9-8.8,9.6c-3.8,29.1-8.1,58.3-11.9,87.4
		c-0.7,5.9-2.6,8.1-9.3,8.1c-58.4-0.3-116.8-0.3-175,0c-6.1,0-8-2.1-8.6-7.6c-3.9-29.5-7.9-58.9-12.4-88.3c-0.5-3-3.4-7.6-6-8.3
		c-48.1-11.6-93.3-29.9-135.8-54.6c-28.8,20.9-57.3,41.6-85,61.8c-45-42.9-89.5-85.5-135-128.9c14-17.5,29-36.1,44-54.9
		c6.8-8.4,17.5-16.4,18.6-25.4c1-8.4-8.6-17.9-13.6-26.8c-17.1-30.9-31-63-39.4-97.1c-2.3-9.5-7.1-11.8-16.3-12.8
		c-31.3-3.5-62.4-7.8-94.3-11.8c0-29.9,0-59.5,0-90c94.5,0,189.1,0,284.4,0c2.6,86.8,38.1,158.5,109.3,212.9
		c53.1,40.8,114.8,60.3,182.9,58.9c77.6-1.6,144.4-28.9,198.8-81.6c54.1-52.5,80.8-116.4,82.5-190.4c94.9,0,189.3,0,284.4,0
		C1166.4,878.8,1166.4,908.8,1166.4,938.9z"/>
</g>
</svg>
