<?xml version="1.0" encoding="utf-8"?>
<!-- Generator: Adobe Illustrator 18.0.0, SVG Export Plug-In . SVG Version: 6.00 Build 0)  -->
<!DOCTYPE svg PUBLIC "-//W3C//DTD SVG 1.1//EN" "http://www.w3.org/Graphics/SVG/1.1/DTD/svg11.dtd">
<svg version="1.1" xmlns="http://www.w3.org/2000/svg" xmlns:xlink="http://www.w3.org/1999/xlink" x="0px" y="0px"
	 viewBox="0 0 1190.6 1683.8" enable-background="new 0 0 1190.6 1683.8" xml:space="preserve">
<g id="Layer_2" display="none">
	<path display="inline" d="M0,514v577.7h1190.6V514H0z M494.2,901.4H335.5v-36l102.6-128.3h-91v-33.5H490v31l-107,133.4h111.1V901.4
		z M644.7,901.4L591,808.6l-32,33.1v59.8h-39.4V703.6H559v87.8l79.7-87.8h53l-73.5,77l77.5,120.7H644.7z M854.7,901.4H717.2V705.3
		h39.4v162.8h98V901.4z"/>
</g>
<g id="Layer_4">
	<g>
		<polygon fill="#FFFFFF" points="379.7,866.6 379.7,785.9 326,866.6 		"/>
		<path fill="#FFFFFF" d="M835,759.5c-4.2-3.5-9-5.2-14.4-5.2s-10.2,1.7-14.5,5.2c-4.2,3.5-7.5,9.7-9.9,18.8
			c-3.1,11.7-4.6,31.4-4.6,59.1s1.4,46.8,4.1,57.1c2.8,10.4,6.2,17.3,10.4,20.7c4.2,3.4,9,5.2,14.4,5.2s10.2-1.7,14.5-5.2
			c4.2-3.5,7.5-9.7,9.9-18.8c3.1-11.6,4.6-31.3,4.6-59s-1.4-46.8-4.1-57.1C842.7,769.9,839.2,763,835,759.5z"/>
		<path fill="#FFFFFF" d="M0,553.1v577.7h1190.6V553.1H0z M451.9,906.4h-29v47.5h-43.3v-47.5h-95.5v-39.6l101.2-150h37.6v149.9h29
			V906.4z M624.2,911.9v42.1H467.5c1.7-15.9,6.8-31,15.3-45.2c8.5-14.2,25.2-33.1,50.3-56.6c20.2-19,32.5-31.9,37.1-38.7
			c6.2-9.3,9.2-18.6,9.2-27.7c0-10.1-2.7-17.9-8-23.3c-5.4-5.4-12.8-8.1-22.2-8.1c-9.3,0-16.8,2.8-22.3,8.5
			c-5.5,5.7-8.7,15.1-9.5,28.4l-44.6-4.5c2.7-24.9,11-42.8,25-53.7c14-10.8,31.5-16.3,52.5-16.3c23,0,41.1,6.3,54.3,18.9
			c13.2,12.6,19.7,28.2,19.7,46.9c0,10.6-1.9,20.8-5.6,30.4c-3.8,9.6-9.7,19.7-17.9,30.2c-5.4,7-15.2,17-29.3,30.1
			c-14.1,13.1-23,21.8-26.8,26.1c-3.8,4.3-6.8,8.5-9.1,12.6H624.2z M708.7,953.9H664v-45.3h44.7V953.9z M873.4,933.8
			c-12.6,16.1-30.2,24.2-52.8,24.2c-22.7,0-41-8.8-54.9-26.5c-13.9-17.7-20.8-49.2-20.8-94.5c0-44.5,7.6-76.5,22.9-96
			c12.6-16.1,30.2-24.2,52.8-24.2s40.3,8.2,53,24.5c15.2,19.3,22.8,51.4,22.8,96.2C896.3,882.1,888.7,914.2,873.4,933.8z"/>
	</g>
</g>
</svg>
