<?xml version="1.0" encoding="utf-8"?>
<!-- Generator: Adobe Illustrator 18.0.0, SVG Export Plug-In . SVG Version: 6.00 Build 0)  -->
<!DOCTYPE svg PUBLIC "-//W3C//DTD SVG 1.1//EN" "http://www.w3.org/Graphics/SVG/1.1/DTD/svg11.dtd">
<svg version="1.1" id="Layer_2" xmlns="http://www.w3.org/2000/svg" xmlns:xlink="http://www.w3.org/1999/xlink" x="0px" y="0px"
	 viewBox="0 0 1190.6 1683.8" enable-background="new 0 0 1190.6 1683.8" xml:space="preserve">
<path fill="#FFFFFF" d="M793.5,150H397c-65.3,0-118.8,53.5-118.8,118.8v1146.3c0,65.3,53.5,118.8,118.8,118.8h396.3
	c65.5,0,118.9-53.5,118.9-118.8V268.7C912.3,203.4,858.8,150,793.5,150z M595.3,201.4C703.4,201.4,791,289,791,397.2
	s-87.6,195.8-195.8,195.8c-108.1,0-195.8-87.6-195.8-195.8S487.2,201.4,595.3,201.4z M595.4,1482.4c-108.1,0-195.8-87.6-195.8-195.8
	c0-108.1,87.6-195.8,195.8-195.8s195.8,87.6,195.8,195.8C791.2,1394.7,703.5,1482.4,595.4,1482.4z M595.4,1037.6
	c-108.1,0-195.8-87.6-195.8-195.8s87.6-195.8,195.8-195.8s195.8,87.6,195.8,195.8S703.5,1037.6,595.4,1037.6z"/>
</svg>
