<?xml version="1.0" encoding="utf-8"?>
<!-- Generator: Adobe Illustrator 22.1.0, SVG Export Plug-In . SVG Version: 6.00 Build 0)  -->
<svg version="1.1" id="Laag_1" xmlns="http://www.w3.org/2000/svg" xmlns:xlink="http://www.w3.org/1999/xlink" x="0px" y="0px"
	 viewBox="0 0 40 40" style="enable-background:new 0 0 40 40;" xml:space="preserve">
<style type="text/css">
	.st0{fill:#FFFFFF;}
</style>
<path class="st0" d="M19.2,4.9c0.5,0,1,0,1.5,0c0.1,0,0.1,0,0.2,0c1.1,0.1,2.2,0.4,3.3,0.8c4.9,2,7.9,7.4,6.9,12.6
	c-0.4,2-1.2,3.9-2.1,5.8c-1.9,3.6-4.4,6.9-7.1,9.9c-0.4,0.5-0.9,0.9-1.5,1.1c-0.2,0-0.5,0-0.7,0c-0.5-0.2-0.9-0.5-1.3-0.9
	c-1.6-1.8-3.1-3.6-4.5-5.6c-1.7-2.5-3.3-5.1-4.3-7.9c-0.7-2.1-1.1-4.2-0.7-6.4c1-4.7,3.8-7.7,8.4-9C17.9,5.1,18.6,5,19.2,4.9z
	 M20,23.8c4.2,0,7.5-3.4,7.5-7.5c0-4.2-3.4-7.6-7.5-7.6c-4.2,0-7.5,3.4-7.5,7.5C12.5,20.4,15.8,23.8,20,23.8z"/>
<path class="st0" d="M23.8,16.2c0,2.1-1.7,3.8-3.8,3.8c-2.1,0-3.8-1.7-3.8-3.8c0-2.1,1.7-3.8,3.8-3.8C22.1,12.5,23.8,14.1,23.8,16.2
	z"/>
</svg>
