<?xml version="1.0" encoding="utf-8"?>
<!-- Generator: Adobe Illustrator 22.1.0, SVG Export Plug-In . SVG Version: 6.00 Build 0)  -->
<svg version="1.1" id="Laag_1" xmlns="http://www.w3.org/2000/svg" xmlns:xlink="http://www.w3.org/1999/xlink" x="0px" y="0px"
	 viewBox="0 0 40 40" style="enable-background:new 0 0 40 40;" xml:space="preserve">
<style type="text/css">
	.st0{fill:#FFFFFF;}
</style>
<path class="st0" d="M25.3,34.5c-1.2,0-2.5-0.3-3.7-0.7c-1.1-0.4-2.2-1-3.2-1.6c-1.2-0.8-2.3-1.7-3.3-2.6c-1.1-1-2.1-2.1-3.1-3.3
	c-1.1-1.3-2.2-2.8-3.1-4.3c-0.7-1.2-1.3-2.4-1.7-3.7c-0.3-0.9-0.5-1.8-0.6-2.7c-0.2-1.4-0.1-2.7,0.3-4c0.3-1.1,0.8-2,1.5-2.9
	c0.5-0.6,1-1.1,1.6-1.6c0.3-0.3,0.7-0.6,1-0.9c0.3-0.2,0.5-0.4,0.8-0.5c0.5-0.2,1.1-0.2,1.6,0.1c0.5,0.3,0.9,0.7,1.3,1.1
	c0.5,0.6,0.9,1.3,1.3,1.9c0.3,0.5,0.6,0.9,0.8,1.5c0.2,0.5,0.4,1.1,0.5,1.6c0.1,0.8-0.1,1.5-0.7,2.1c-0.3,0.3-0.7,0.6-1,0.9
	c-0.3,0.3-0.7,0.5-1.1,0.8c-0.4,0.3-0.8,0.7-0.9,1.2c-0.1,0.4-0.1,0.9,0,1.3c0.1,0.6,0.4,1.2,0.7,1.7c0.5,0.9,1.2,1.8,1.9,2.6
	c0.7,0.8,1.3,1.5,2.1,2.2c0.7,0.6,1.4,1.2,2.2,1.7c0.4,0.2,0.9,0.4,1.4,0.4c0.6,0,1.1-0.2,1.6-0.5c0.1-0.1,0.2-0.2,0.3-0.3
	c0.4-0.4,0.8-0.8,1.3-1.2c0.3-0.2,0.5-0.4,0.8-0.6c0.7-0.4,1.5-0.5,2.2-0.2c0.6,0.2,1.2,0.5,1.7,0.9c0.6,0.5,1.1,0.9,1.7,1.4
	c0.4,0.4,0.9,0.8,1.2,1.2c0.3,0.3,0.5,0.7,0.7,1.1c0.3,0.7,0.2,1.3-0.3,1.9c-0.2,0.2-0.5,0.5-0.7,0.7c-0.4,0.4-0.8,0.8-1.2,1.1
	c-0.9,0.7-1.9,1.3-2.9,1.6C27.2,34.3,26.3,34.5,25.3,34.5z"/>
</svg>
