<?xml version="1.0" encoding="utf-8"?>
<!-- Generator: Adobe Illustrator 22.1.0, SVG Export Plug-In . SVG Version: 6.00 Build 0)  -->
<svg version="1.1" id="Laag_1" xmlns="http://www.w3.org/2000/svg" xmlns:xlink="http://www.w3.org/1999/xlink" x="0px" y="0px"
	 viewBox="0 0 40 40" style="enable-background:new 0 0 40 40;" xml:space="preserve">
<style type="text/css">
	.st0{fill:#FFFFFF;}
</style>
<path class="st0" d="M18.6,4c0.8,0,1.6,0,2.4,0c0.2,0,0.3,0.1,0.5,0.1C28,4.7,33.7,9.5,35.3,15.9c0.2,1,0.4,1.9,0.6,2.9
	c0,0.8,0,1.6,0,2.4c0,0.2-0.1,0.3-0.1,0.5c-0.7,6.7-5.4,12.1-11.9,13.8C22.9,35.7,22,35.9,21,36c-0.8,0-1.6,0-2.4,0
	c-0.2,0-0.3-0.1-0.5-0.1C11.4,35,6.8,31.3,4.6,24.9c-0.4-1.2-0.5-2.4-0.8-3.7c0-0.9,0-1.8,0-2.7c0-0.1,0.1-0.3,0.1-0.4
	C4.9,11.7,8.4,7.3,14.4,5C15.8,4.4,17.2,4.3,18.6,4z M18.7,14.7c-1.6,0-3.2,0-4.7,0c-1.1,0-1.1,0-1.3,1c-0.2,1.1-0.3,2.1-0.4,3.2
	c2.2,0,4.3,0,6.4,0C18.7,17.5,18.7,16.1,18.7,14.7z M27.4,21.1c-2.2,0-4.3,0-6.4,0c0,1.4,0,2.8,0,4.2c2,0,3.9,0,5.9,0
	C27,23.9,27.2,22.5,27.4,21.1z M12.8,25.3c2,0,3.9,0,5.9,0c0-1.4,0-2.8,0-4.2c-2.1,0-4.2,0-6.4,0C12.5,22.6,12.7,23.9,12.8,25.3z
	 M20.9,18.9c2.1,0,4.2,0,6.4,0c-0.2-1.4-0.4-2.8-0.6-4.2c-2,0-3.9,0-5.9,0C20.9,16.1,20.9,17.5,20.9,18.9z M18.7,6.3
	c-2,0.3-4.5,3.4-5.1,6.2c1.7,0,3.4,0,5.1,0C18.7,10.4,18.7,8.4,18.7,6.3z M13.6,27.5c0.7,2.8,3,5.9,5.1,6.2c0-2.1,0-4.1,0-6.2
	C17,27.5,15.3,27.5,13.6,27.5z M20.9,6.2c0,2.2,0,4.2,0,6.3c1.7,0,3.4,0,5.2,0C25.1,9.8,23.9,7.4,20.9,6.2z M20.9,33.7
	c2.1-0.4,5-3.9,5.1-6.2c-1.7,0-3.4,0-5.1,0C20.9,29.6,20.9,31.7,20.9,33.7z M28.9,14.7c0.2,1.4,0.4,2.8,0.5,4.2c1.4,0,2.8,0,4.4,0
	c-0.3-1.3-0.7-2.6-1-3.8c0-0.2-0.3-0.4-0.5-0.4C31.2,14.6,30.1,14.7,28.9,14.7z M5.8,21.1c0.3,1.3,0.6,2.5,1,3.7
	c0.1,0.2,0.3,0.5,0.4,0.5c1.2,0,2.3,0,3.5,0c-0.2-1.5-0.3-2.9-0.5-4.2C8.8,21.1,7.4,21.1,5.8,21.1z M28.9,25.3c1.1,0,2.3,0,3.4,0
	c0.2,0,0.4-0.2,0.4-0.3c0.4-1.3,0.7-2.5,1-3.9c-1.6,0-3,0-4.4,0C29.3,22.5,29.1,23.9,28.9,25.3z M5.8,18.9c1.6,0,3,0,4.4,0
	c0.2-1.4,0.3-2.8,0.5-4.2c-1.1,0-2.3,0-3.4,0c-0.2,0-0.4,0.2-0.4,0.3C6.5,16.3,6.2,17.5,5.8,18.9z M13.5,32.4
	c-0.7-1.5-1.4-3-2.1-4.6c-0.1-0.1-0.2-0.3-0.4-0.3c-0.9,0-1.9,0-2.9,0C9.6,29.7,11.4,31.3,13.5,32.4z M26.1,32.4
	c2.2-1.1,4-2.7,5.4-4.9c-1.1,0-2.1,0-3,0C27.7,29.2,26.9,30.8,26.1,32.4z M8.1,12.5c1.1,0,2,0,2.9,0c0.1,0,0.4-0.1,0.4-0.2
	c0.7-1.6,1.4-3.1,2.1-4.6C11.4,8.7,9.6,10.3,8.1,12.5z M26.1,7.6c0.8,1.6,1.6,3.3,2.4,4.9c1,0,2,0,3,0C30.1,10.3,28.3,8.7,26.1,7.6z
	"/>
</svg>
