<?xml version="1.0" encoding="utf-8"?>
<!-- Generator: Adobe Illustrator 22.1.0, SVG Export Plug-In . SVG Version: 6.00 Build 0)  -->
<svg version="1.1" id="Laag_1" xmlns="http://www.w3.org/2000/svg" xmlns:xlink="http://www.w3.org/1999/xlink" x="0px" y="0px"
	 viewBox="0 0 40 40" style="enable-background:new 0 0 40 40;" xml:space="preserve">
<style type="text/css">
	.st0{fill:#FFFFFF;}
</style>
<g>
	<path class="st0" d="M35.1,19.8C35.1,28.2,28.3,35,20,35c-8.3,0-15.1-6.8-15.1-15.1c0-8.3,6.8-15.1,15.1-15.1
		C28.3,4.7,35.1,11.5,35.1,19.8z M8.2,19.8c0,6.5,5.2,11.8,11.8,11.8c6.5,0,11.8-5.2,11.8-11.8c0-6.5-5.2-11.8-11.8-11.8
		C13.5,8.1,8.2,13.3,8.2,19.8z"/>
	<path class="st0" d="M21.9,19c0.1,0,0.1-0.1,0.1-0.1c1.2-0.7,2.3-1.4,3.5-2.1c1.1-0.6,2.4,0,2.6,1.2c0.1,0.7-0.2,1.3-0.8,1.6
		c-2.1,1.3-4.1,2.5-6.2,3.8c-1,0.6-2.3,0-2.5-1.1c0-0.1,0-0.2,0-0.4c0-3.8,0-7.6,0-11.5c0-0.9,0.5-1.5,1.4-1.7c1-0.2,1.9,0.6,2,1.6
		c0,0.1,0,0.1,0,0.2c0,2.8,0,5.6,0,8.3C21.9,18.8,21.9,18.9,21.9,19z"/>
</g>
</svg>
