<?xml version="1.0" encoding="utf-8"?>
<!-- Generator: Adobe Illustrator 18.0.0, SVG Export Plug-In . SVG Version: 6.00 Build 0)  -->
<!DOCTYPE svg PUBLIC "-//W3C//DTD SVG 1.1//EN" "http://www.w3.org/Graphics/SVG/1.1/DTD/svg11.dtd">
<svg version="1.1" id="Layer_1" xmlns="http://www.w3.org/2000/svg" xmlns:xlink="http://www.w3.org/1999/xlink" x="0px" y="0px"
	 viewBox="0 0 1190.6 1683.8" enable-background="new 0 0 1190.6 1683.8" xml:space="preserve">
<g>
	<path fill="#FFFFFF" d="M424.3,970.9c0-38,0-76,0-114c0-24.3,7.9-44.8,28.8-58.7c21.3-14.2,10.3-34.9,10.5-53
		c0.1-7.2-9.4-5.1-14.8-5.2c-42.2-0.2-84.5,0.3-126.7-0.3c-10.7-0.1-16.6,5.5-23.7,11.7c-22.1,19.4-41.2,18.7-62-2.7
		c-22.6-23.3-33.7-52.1-36.1-84.2c-1.8-24,8.2-39.1,33.4-41.3c9.9-0.9,18.1-1.7,17.6-15.5c-0.4-11.6,0.5-21.9-15.2-23.4
		c-9.4-0.9-18.8-4.2-21.1-15.1c-2.6-11.9-9.5-9.9-18.8-8.9c-48.7,5.2-97.4,11-146.3,2.3c-6.6-1.2-13.2-2.4-19.7-4
		c-12.7-3.2-25.5-7.4-25.2-23.6c0.3-14.8,8.5-25.3,22.4-30.8c26.9-10.7,55-8.5,82.6-5.8c32.6,3.2,65.2,8.3,96.6,18.6
		c12.3,4.1,20.5,3.1,30.5-7.6c20.3-21.9,40.1-22.3,61.7-1.8c10.4,9.8,18.7,9.9,31.4,6.7c40.9-10.4,82.4-18,124.9-17.4
		c5.9,0.1,11.9,0,17.7,0.6c31.5,3.4,52.4,17.2,50.2,36.5c-3.4,28.8-28.9,25.4-48.8,29c-42.1,7.6-84.2,3.1-126.2-0.7
		c-12-1.1-23.2-2.7-28.4,12.8c-2.2,6.7-10.4,8.4-17.2,9c-14.2,1.3-16.7,9.3-16.8,22.2c-0.1,14.7,8,16.4,19,17.1
		c12.5,0.7,25.2,4.9,28.1,17.6c4.3,18.5,15.6,19.8,30.9,19.3c27-0.9,54.1-1.2,81.1,0.1c17.2,0.9,21.1-5.8,20.9-21.8
		c-0.4-35.2,0.4-35.2,34.5-35.2c67.6,0,135.1,0.7,202.7-0.5c19.3-0.3,24.6,5.5,24,24.2c-1,35.4-7.3,32.7,33.9,32.9
		c22,0.1,43.9,0.1,65.9,0c18.2-0.1,38.3,6.2,44-22.4c2.3-11.7,17.7-14.2,30-14.6c10.1-0.3,15.8-4.1,14.8-15.3
		c-0.8-9.5,3.2-20.8-12.6-22.5c-12.2-1.3-23-5.7-26.2-19.8c-2.4-10.5-9.8-5.7-16.2-5.1c-49.5,5.4-99.1,11-148.8,2.1
		c-17.6-3.2-41.3-2.2-42.8-26.6c-1.6-25.4,19.7-33.8,40.7-36.7c52.8-7.2,104.2,2.8,154.8,16.4c15.3,4.1,26.5,6.2,39.3-8.5
		c17.2-19.7,38.2-19.1,57.8-0.1c11,10.6,20,10.5,33.6,7.1c41.7-10.5,84-18.6,127.4-16.9c7.6,0.3,15.3,0.4,22.7,1.9
		c20.8,4.1,42,11,40.5,36.8c-1.5,25-25.1,23.4-42.6,26.7c-43.7,8.2-87.5,3.9-131.3,0.2c-11.1-0.9-23.7-5.1-28.5,12
		c-2.2,7.7-11.8,9.5-19.3,10.1c-14.5,1.2-14.2,10.6-14.5,21.4c-0.4,12,5,15.5,16.2,17.4c29.1,5,39.2,18.6,34.9,47.3
		c-4.5,29.6-14.8,57.2-36.8,78.9c-20.2,20-40.2,21.6-60,2.3c-10.4-10.1-20.6-12.4-33.7-12.2c-38.8,0.4-77.7-0.3-116.5,0.5
		c-8.9,0.2-24-6.4-25.8,6.7c-2.2,15.6-10.2,36.7,5.7,47.4c29.8,20,34,47.6,33.8,79.3c-0.6,69.2,0,138.5-0.2,207.8
		c-0.2,46.4-25.6,72.3-72.1,72.6c-65,0.5-130.1,0.5-195.1,0.1c-51.7-0.3-75.2-24.7-75.4-76.9C424.2,1041.9,424.3,1006.4,424.3,970.9
		z M693.3,1010.5c1.1-59.6-44.8-107.6-103.3-107.9c-55.9-0.3-105.1,48.5-105.4,104.6c-0.3,56,45.8,103.1,102.1,104
		C646.2,1112.2,692.2,1068.8,693.3,1010.5z M492.6,871.9c16.7,2,27.9,0,28.1-21.4c0.2-20.4-7.2-26.8-26.6-25.9
		c-15.7,0.7-28,0.8-27.8,22.2C466.4,866.4,472.9,875.6,492.6,871.9z"/>
	<path fill="#FFFFFF" d="M401.5,971.5c5.2,22.5-1.4,30.8-26.5,34.4c-88.2,12.6-146.6,77.7-154.4,167.5c-1.2,13.3-5.7,16.7-18.3,17.2
		c-47.9,2-48,2.3-42.1-45.2c12.7-102.6,109.8-194.3,212.8-202.9C397.5,940.4,408.6,945.7,401.5,971.5z"/>
	<path fill="#FFFFFF" d="M790.6,974.4c-8.5-32.1,5.8-33.6,27.1-31.9c110.5,8.9,211.3,114.3,214.4,223.9c0.5,18.8-3.8,26.8-23.3,24
		c-7.4-1.1-15.2-0.5-22.8,0c-10.4,0.7-14-3.1-15.6-14.1c-15.2-105.2-62.5-152.7-170.1-172.8C776.9,999.2,794.4,979.8,790.6,974.4z"
		/>
	<path fill="#FFFFFF" d="M511.7,994.5c22,13.1,44.6,19.4,64.6-1.1c19-19.5,14.1-41.2,0.5-62.2c35.6-6.7,66.1,7.6,82.8,37.9
		c16.9,30.6,11.9,68-12.4,93.4c-23.7,24.8-59.6,31.8-90.5,17.6C523.4,1064.9,507.3,1034.9,511.7,994.5z"/>
</g>
</svg>
