<?xml version="1.0" encoding="utf-8"?>
<!-- Generator: Adobe Illustrator 18.0.0, SVG Export Plug-In . SVG Version: 6.00 Build 0)  -->
<!DOCTYPE svg PUBLIC "-//W3C//DTD SVG 1.1//EN" "http://www.w3.org/Graphics/SVG/1.1/DTD/svg11.dtd">
<svg version="1.1" xmlns="http://www.w3.org/2000/svg" xmlns:xlink="http://www.w3.org/1999/xlink" x="0px" y="0px"
	 viewBox="0 0 1190.6 1683.8" enable-background="new 0 0 1190.6 1683.8" xml:space="preserve">
<g id="Layer_1">
</g>
<g id="Layer_2">
	<path fill="#FFFFFF" d="M1149.5,631.7c14.3-0.3,33.8,7.5,41.5-4.6c6.8-10.6,1.9-28.7,2.1-43.4c0.1-4.4,0-8.7,0-13.1
		c0-5.2,0.3-10.5-0.1-15.7c-1.2-15.4,6.4-34.1-3.7-45.2c-8.4-9.2-26.4-2.9-40.1-2.7c-12.7,0.2-13.5-6.3-13.7-16.2
		c-0.4-15.4,5.7-33-2.9-45.9c-14.6-22-33.2-41.3-50-61.9c-6.3-7.8-12.8-9-18.7-0.2c-22.8,33.4-64.2,57.4-53.6,107.6
		c3.1,14.9-5.9,16.8-18.2,16.5c-26.1-0.7-52.3-1.1-78.3,0.1c-15.4,0.7-20.6-5.1-18.2-19.3c4.5-27.4-3.9-50.4-23.4-69.8
		c-4.8-4.8-9.3-10.2-13.2-15.8c-20.1-28.8-23.4-29.6-45.4-3.9c-23.7,27.6-52.6,53.2-43.7,96.1c2.3,10.9-5.1,12.7-14.2,12.5
		c-26.1-0.3-52.3-0.9-78.3,0.2c-14.2,0.6-18.2-4.6-17.2-18c1.4-19.7,2.2-39.8-13.2-55.6c-15-15.4-28.1-32.1-40.1-50
		c-4.6-6.9-13-12.6-19-3.7c-23.1,34.2-64.2,60.1-53.1,110.9c2.7,12.3-3.3,16.6-15.9,16.3c-27-0.8-54-1.1-80.9,0.1
		c-15.8,0.7-18.9-5.7-18.3-19.7c0.7-16.1,3.9-33.4-7-47.6c-14.5-19-30-37.3-45.2-55.9c-5.5-6.8-12-11.5-18.7-1.8
		c-22.7,33.4-64.6,57-54.4,107.2c2.7,13.5-3.3,18.2-17.2,17.7c-26.9-1-54-0.7-80.9-0.1c-11.6,0.3-19.2-2.3-16.6-15.5
		c9.8-49.5-27.5-75.7-52.9-107.8c-4.3-5.4-10.8-12-16.6-2.9c-21.6,34.2-65.1,57-56,107.3c2.6,14.5-3.5,20.9-18.4,18.9
		c-6-0.8-12.3,0.7-18.2-0.3c-18.1-2.9-21.9,5.8-21,22c1.2,23.4,2.2,47.2-0.2,70.4c-2.8,27.2,6.3,38.3,33.5,33.1
		c21.8-4.2,25,6.7,24.9,25.9c-0.7,136.6-1,273.3,0.2,410c0.2,23.7-5.8,33.4-29.6,29.2c-21.5-3.8-32.2,2.6-28.9,27.2
		c2.3,17.1,0.5,34.8,0.5,52.2c0,39.7,0,40.8,38.3,40.3c17.4-0.3,20.3,6.4,19.4,21.3c-1.1,17.3,0.5,34.8-0.5,52.2
		c-0.7,12.8,4.2,16.4,16.5,16.1c30.4-0.7,60.9-0.8,91.4,0c13.2,0.4,18.9-2.9,18-17.2c-1.2-18.2,0.6-36.6-0.5-54.8
		c-0.9-14.3,4.8-17.7,18-17.3c27,0.9,54,0.8,80.9,0c12.2-0.3,16.2,3.3,16.7,16c0.8,23.9-11.5,57.5,5.1,69.3
		c16.9,12,48.5,3.3,73.7,3.7c1.7,0,3.5,0,5.2,0c40.9,0,40.9,0,40.9-40.8c0-48,0-48.2,49.3-48c20.8,0.1,48.1-6.9,60.6,3.5
		c14.7,12.4,3.1,40.8,5,62.1c0.1,0.9,0.1,1.8,0,2.6c-2.3,15.2,2.4,22.2,19.5,20.8c19.9-1.6,40-0.4,60-0.4c45.9,0,45.9,0,45.9-46.3
		c0-42.5,0-42.7,41.8-42.4c21.6,0.1,49.5-6.9,63.1,3.9c14.6,11.5,3,40.7,4.8,62.1c0.1,1.7,0.2,3.5,0,5.2
		c-1.9,13.4,3.1,18.4,17.2,17.8c26.1-1,52.4-2.4,78.3,0.3c26.4,2.7,31.3-7.2,30.6-31.5c-1.9-57.8-0.6-57.9,57.2-57.9
		c57.1,0,57.1,0,57.2,55.9c0,6.1,0.5,12.2-0.1,18.3c-1.2,11.5,3.7,15,14.9,14.8c31.3-0.6,62.7-0.9,94,0.1
		c14.9,0.5,17.3-5.9,16.7-18.5c-0.8-18.2,0.5-36.6-0.4-54.8c-0.7-12.8,4.3-17.2,16.5-15.9c6.9,0.7,14-0.6,20.9,0.3
		c15.5,2,22-3,20.7-19.8c-1.5-19.9-0.4-40-0.4-60c0-39.3,0-39.6-38.6-40.3c-11.6-0.2-19.3-0.2-19.2-16c0.6-144.5,0.4-289,0.2-433.5
		C1135.6,637.6,1137.1,631.9,1149.5,631.7z M283.5,1102.4c-29.6-0.7-59.3-1.5-88.7,0.2c-19,1.1-20.7-7.3-20.5-22.8
		c0.6-72.2,0.3-144.5,0.3-216.7c0-71.4,0.7-142.7-0.5-214.1c-0.3-18.8,5.4-23.6,23.4-22.7c28.6,1.5,57.4,0.9,86.1,0.2
		c12.2-0.3,16.6,3.2,16.6,16c-0.4,148-0.4,295.9,0,443.9C300.1,1099.3,295.6,1102.7,283.5,1102.4z M523.8,1102.4
		c-29.6-0.7-59.3-1.5-88.7,0.2c-19,1.1-20.6-7.4-20.5-22.8c0.6-72.2,0.3-144.5,0.3-216.7c0-71.4,0.7-142.7-0.5-214.1
		c-0.3-18.8,5.5-23.6,23.4-22.6c28.6,1.5,57.4,0.9,86.1,0.2c12.2-0.3,16.6,3.2,16.5,16c-0.4,148-0.4,295.9,0,443.9
		C540.4,1099.4,535.9,1102.7,523.8,1102.4z M754.1,1102.6c-28.7-1.4-57.4-0.9-86.1-0.2c-12.7,0.3-18.4-2.3-18.3-16.9
		c0.5-147.1,0.5-294.2,0-441.3c0-13.6,3.6-18.2,17.5-17.7c29.6,1,59.2,1.4,88.7-0.1c17.2-0.9,19.8,5.9,19.7,21
		c-0.7,72.2-0.3,144.5-0.3,216.7c0,72.2-0.5,144.5,0.4,216.7C775.8,1097.7,771.4,1103.4,754.1,1102.6z M999.2,1102.4
		c-29.6-0.7-59.3-1.5-88.7,0.2c-19,1.1-20.7-7.3-20.5-22.8c0.6-72.2,0.3-144.5,0.3-216.7c0-71.4,0.7-142.7-0.5-214.1
		c-0.3-18.8,5.4-23.6,23.4-22.7c28.6,1.5,57.4,0.9,86.1,0.2c12.1-0.3,16.6,3.2,16.6,16c-0.4,148-0.4,295.9,0,443.9
		C1015.8,1099.3,1011.3,1102.7,999.2,1102.4z"/>
</g>
</svg>
