<?xml version="1.0" encoding="utf-8"?>
<!-- Generator: Adobe Illustrator 18.0.0, SVG Export Plug-In . SVG Version: 6.00 Build 0)  -->
<!DOCTYPE svg PUBLIC "-//W3C//DTD SVG 1.1//EN" "http://www.w3.org/Graphics/SVG/1.1/DTD/svg11.dtd">
<svg version="1.1" id="Layer_1" xmlns="http://www.w3.org/2000/svg" xmlns:xlink="http://www.w3.org/1999/xlink" x="0px" y="0px"
	 viewBox="0 0 1190.6 1683.8" enable-background="new 0 0 1190.6 1683.8" xml:space="preserve">
<path fill="#FFFFFF" d="M231.5,259.9v48.5h-97v97h97v97h-97v97h97v97h-97v97h97v97h-97v97h97v97h-97v97h97v97h-97v97h97v48.5h97
	V259.9H231.5z M813.5,259.9v48.5H377v97h436.5v97H377v97h436.5v97H377v97h436.5v97H377v97h436.5v97H377v97h436.5v97H377v97h436.5
	v48.5h97V259.9H813.5z M959,308.4v97h97v-97H959z M959,502.4v97h97v-97H959z M959,696.4v97h97v-97H959z M959,890.4v97h97v-97H959z
	 M959,1084.4v97h97v-97H959z M959,1278.4v97h97v-97H959z"/>
</svg>
