<?xml version="1.0" encoding="utf-8"?>
<!-- Generator: Adobe Illustrator 18.0.0, SVG Export Plug-In . SVG Version: 6.00 Build 0)  -->
<!DOCTYPE svg PUBLIC "-//W3C//DTD SVG 1.1//EN" "http://www.w3.org/Graphics/SVG/1.1/DTD/svg11.dtd">
<svg version="1.1" id="Layer_1" xmlns="http://www.w3.org/2000/svg" xmlns:xlink="http://www.w3.org/1999/xlink" x="0px" y="0px"
	 viewBox="0 0 1190.6 1683.8" enable-background="new 0 0 1190.6 1683.8" xml:space="preserve">
<path fill="#FFFFFF" d="M63.4,265.6v88.7H19V443h44.3v133H19v88.7h44.3v133H19v88.7h44.3v133H19v88.7h44.3v133H19v88.7h44.3v88.7
	H152v-177.3c0-146.3,65.7-257.1,156.5-354.6h65.1v133h-97c-26.6,26.6-40.2,88.7-40.2,88.7h137.1v133H196.3v88.7h177.3v88.7h88.7
	c0-31.6,3-60.7,6.9-88.7h37.4v-88.7h-18c15.9-49.3,37.9-92.9,65.1-133h85.9v-88.7h-12.5c43.2-46,90.8-89.1,141.3-133h137.1v-88.7
	h-38.8c43.9-40.9,87.2-84.3,124.7-133h91.4v-88.7h-33.2c22.4-40.6,40.7-84.5,54-133h67.9v-88.7h-51.3c3.6-28.3,6.9-57.5,6.9-88.7
	h-88.7c0,31.3-1.7,60.9-5.5,88.7H879.2c-8.9,44.3-40.2,88.7-40.2,88.7h173.1c-15.5,49.1-37.1,93.1-63.7,133H750.4
	c-35.5,44.3-92.8,88.7-92.8,88.7h218.9c-42.9,46.1-91,89.2-141.3,133H506.6v88.7h130.2c-44.4,41.1-86.6,84.1-124.7,133h-49.9V743.5
	c1.8-1.5,3.8-2.7,5.5-4.2c82.5-68.4,167.8-134.5,234.1-209.2s115-161.1,115-264.6h-88.7c0,31.1-5.8,60.5-16.6,88.7h-72V443h18
	c-7.4,9.5-13.7,19.6-22.2,29.1C589.1,524.2,527.2,576.3,462.3,630V443h44.3v-88.7h-44.3v-88.7h-88.7v88.7H196.3V443h177.3v133H196.3
	v88.7h177.3v40.2c-34.6,29.5-68.3,60-101.1,92.8h-40.2c-26.6,26.6-40.2,88.7-40.2,88.7C178,904.4,164.4,923.5,152,943V265.6H63.4z"
	/>
</svg>
