<?xml version="1.0" encoding="utf-8"?>
<!-- Generator: Adobe Illustrator 22.1.0, SVG Export Plug-In . SVG Version: 6.00 Build 0)  -->
<svg version="1.1" id="Laag_1" xmlns="http://www.w3.org/2000/svg" xmlns:xlink="http://www.w3.org/1999/xlink" x="0px" y="0px"
	 viewBox="0 0 100 100" style="enable-background:new 0 0 100 100;" xml:space="preserve">
<style type="text/css">
	.st0{fill:#FFFFFF;}
</style>
<g>	 
<path class="st0" d="M16.5,45.5c0-0.2,0-0.5,0-0.7c0.5-0.5,0.9-1.1,1.4-1.5c10.3-9.1,20.6-18.1,30.9-27.2c1.9-1.7,4-1.6,5.9,0.1
	c9.2,8.1,18.4,16.2,27.6,24.3c1.6,1.4,3.1,2.9,4.7,4.4c0,0.2,0,0.5,0,0.7c-0.5,0.2-1,0.5-1.5,0.5c-3,0.1-5.9,0.1-8.9,0.1
	c-0.3,0-0.7,0-1.1,0c0,0.5,0,0.9,0,1.2c0,8.9,0,17.9,0,26.8c0,2.3-1.1,3.4-3.3,3.4c-3.5,0-7,0-10.5,0c-0.3,0-0.6,0-1,0
	c0-0.4,0-0.8,0-1.1c0-5.7,0-11.5,0-17.2c0-2.2-1.1-3.2-3.3-3.2c-3.8,0-7.5,0-11.3,0c-2.1,0-3.2,1.1-3.2,3.2c0,5.8,0,11.5,0,17.3
	c0,0.3,0,0.7,0,1c-0.2,0.1-0.3,0.1-0.3,0.1c-4,0-7.9,0-11.9,0c-1.1,0-1.9-0.6-2.3-1.6c-0.2-0.6-0.3-1.4-0.3-2.1c0-8.8,0-17.6,0-26.4
	c0-0.4,0-0.7,0-1.2c-0.4,0-0.8,0-1.1,0c-2.8,0-5.6,0-8.4,0C17.8,46.1,17.2,45.7,16.5,45.5z"/>
</g>
</svg>
